<?xml version="1.0" encoding="utf-8"?>
<!-- Generator: Adobe Illustrator 14.0.0, SVG Export Plug-In . SVG Version: 6.00 Build 43363)  -->
<!DOCTYPE svg PUBLIC "-//W3C//DTD SVG 1.1//EN" "http://www.w3.org/Graphics/SVG/1.1/DTD/svg11.dtd">
<svg version="1.1" id="Calque_1" xmlns="http://www.w3.org/2000/svg" xmlns:xlink="http://www.w3.org/1999/xlink" x="0px" y="0px"
	 width="284px" height="220px" viewBox="0 0 284 220" enable-background="new 0 0 284 220" xml:space="preserve">
<path fill="#D0043C" d="M185.75,113.461c0,4.091-2.638,7.712-6.538,8.961l-42.666,14.976c0,0-1.533,0.445-1.55,1.66
	c-0.024,1.076,1.55,1.968,1.55,1.968l20.926,14.509c4.271,2.954,5.335,8.818,2.369,13.096c-2.959,4.265-8.816,5.33-13.093,2.369
	l-40.198-27.87c-2.94-2.032-4.474-5.586-3.948-9.125c0.522-3.522,3.036-6.477,6.438-7.569l40.315-11.823
	c0,0,0.928-0.197,0.928-1.154c0-0.952-0.928-1.15-0.928-1.15l-40.315-11.83c-3.402-1.085-5.915-4.04-6.438-7.572
	c-0.526-3.529,1.007-7.083,3.948-9.114l40.198-27.874c4.276-2.955,10.133-1.899,13.093,2.382c2.966,4.258,1.902,10.125-2.369,13.086
	L136.547,85.89c0,0-1.574,0.895-1.55,1.964c0.017,1.222,1.55,1.671,1.55,1.671l42.666,14.972c3.9,1.246,6.538,4.864,6.538,8.961
	V113.461z M276.625,99.521l-121.16-83.986c-5.803-4.026-13.512-4.026-19.321,0L14.983,99.521c-4.562,3.165-7.29,8.379-7.29,13.937
	c0,5.552,2.728,10.769,7.29,13.928l121.16,83.985c2.907,2.019,6.279,3.022,9.664,3.022c3.37,0,6.751-1.004,9.657-3.022
	l121.16-83.985c4.554-3.159,7.29-8.376,7.29-13.928C283.915,107.899,281.179,102.686,276.625,99.521"/>


</svg>



